<?xml version="1.0" encoding="UTF-8"?>
<svg width="243px" height="70px" viewBox="0 0 243 70" version="1.1" xmlns="http://www.w3.org/2000/svg" xmlns:xlink="http://www.w3.org/1999/xlink">
    <!-- Generator: Sketch 51.2 (57519) - http://www.bohemiancoding.com/sketch -->
    <title>Logo_vettoriale_Armanni</title>
    <desc>Created with Sketch.</desc>
    <defs></defs>
    <g id="Page-1" stroke="none" stroke-width="1" fill="none" fill-rule="evenodd">
        <g id="Logo_vettoriale_Armanni" fill-rule="nonzero">
            <rect id="Rectangle" fill="#F5F5F5" x="0" y="0" width="243" height="70"></rect>
            <g id="Group" transform="translate(17.000000, 11.000000)">
                <polygon id="Shape" fill="#000000" points="15.21 0.362962963 27.36 0.362962963 44.37 29.762963 32.31 29.762963"></polygon>
                <polygon id="Shape" fill="#000000" points="17.91 8.89259259 23.58 19.1462963 6.39 48.3648148 0.72 38.2018519"></polygon>
                <polygon id="Shape" fill="#0064A7" points="18.54 31.3962963 12.96 41.287037 47.97 41.3777778 53.73 31.3962963"></polygon>
            </g>
            <g id="Group" transform="translate(75.000000, 17.000000)">
                <g transform="translate(0.000000, 2.700000)" fill="#0064A7" id="Shape">
                    <path d="M21.1580838,29.79 L21.9718563,32.67 L5.24431138,32.76 C5.24431138,32.76 0.813772455,32.94 0.813772455,28.26 C0.813772455,24.75 0.813772455,4.86 0.813772455,4.86 C0.813772455,4.86 0.813772455,0.27 5.96766467,0.27 C11.1215569,0.27 99.2802395,0.27 99.2802395,0.27 L99.2802395,3.42 L6.05808383,3.42 C6.05808383,3.42 4.15928144,3.33 4.15928144,5.31 C4.15928144,7.29 4.15928144,27.81 4.15928144,27.81 C4.15928144,27.81 4.15928144,29.79 5.96766467,29.79 C8.13772455,29.79 21.1580838,29.79 21.1580838,29.79 Z"></path>
                    <polygon points="8.13772455 26.01 13.8341317 26.01 18.0838323 12.87 19.7113772 18.18 17.5413174 18.18 15.9137725 22.95 21.248503 22.95 24.4131737 32.76 29.2053892 32.76 21.4293413 6.57 14.557485 6.57"></polygon>
                    <path d="M28.5724551,25.92 L34.9017964,25.92 L34.9017964,10.98 L36.6197605,10.98 C36.6197605,10.98 37.9760479,10.89 37.9760479,12.51 C37.9760479,12.51 38.1568862,14.13 36.348503,14.13 C36.2580838,14.22 36.348503,18 36.348503,18 C36.348503,18 38.3377246,17.73 38.3377246,19.53 C38.3377246,21.33 38.3377246,25.92 38.3377246,25.92 L44.0341317,25.92 L44.0341317,17.55 C44.0341317,17.55 43.9437126,14.94 41.6832335,14.49 C41.6832335,14.49 43.4011976,12.96 43.4011976,10.98 C43.4916168,10.98 43.7628743,6.12 35.7155689,5.4 C29.2958084,5.22 28.5724551,6.93 28.5724551,6.93 C28.5724551,8.82 28.5724551,25.92 28.5724551,25.92 Z"></path>
                    <polygon points="46.0233533 25.92 52.2622754 25.92 52.8952096 15.93 57.8682635 24.66 62.5700599 15.93 63.2934132 25.92 69.5323353 25.92 68.3568862 6.57 61.9371257 6.57 57.7778443 14.04 53.708982 6.57 47.3796407 6.57"></polygon>
                    <polygon points="70.7077844 25.92 76.1329341 25.92 80.6538922 12.87 82.3718563 18.18 80.1113772 18.18 78.5742515 22.86 83.8185629 22.86 84.9035928 25.92 89.5149701 25.92 83.908982 6.66 77.1275449 6.66"></polygon>
                    <polygon points="90.6 6.75 95.9347305 6.75 101.179042 14.04 101.179042 0.45 107.417964 0.45 107.417964 25.92 101.902395 25.92 96.4772455 18.9 96.4772455 25.92 90.6 25.92"></polygon>
                    <polygon points="109.588024 6.57 115.013174 6.57 120.528743 13.95 120.528743 6.66 126.586826 6.66 126.586826 25.92 121.071257 25.92 115.826946 18.99 115.826946 25.92 109.678443 25.92"></polygon>
                    <polygon points="128.937725 6.75 128.937725 25.92 135.267066 25.92 135.267066 6.66"></polygon>
                    <path d="M109.588024,0.27 L109.588024,3.33 L138.431737,3.42 C138.431737,3.42 140.24012,3.24 140.24012,5.4 C140.24012,7.56 140.24012,27.45 140.24012,27.45 C140.24012,27.45 140.330539,29.7 138.250898,29.7 C135.990419,29.7 30.5616766,29.7 30.5616766,29.7 L31.5562874,32.67 L138.431737,32.67 C138.431737,32.67 143.40479,33.03 143.40479,27.81 C143.40479,22.59 143.40479,5.31 143.40479,5.31 C143.40479,5.31 143.49521,0.27 138.612575,0.27 C133.639521,0.27 109.588024,0.27 109.588024,0.27 Z"></path>
                </g>
                <path d="M147.74491,0.27 C148.197006,0.27 148.739521,0.36 149.191617,0.63 C149.643713,0.9 150.005389,1.26 150.276647,1.71 C150.547904,2.16 150.638323,2.7 150.638323,3.15 C150.638323,3.69 150.547904,4.14 150.276647,4.59 C150.005389,5.04 149.643713,5.4 149.191617,5.67 C148.739521,5.94 148.197006,6.03 147.74491,6.03 C147.202395,6.03 146.750299,5.94 146.298204,5.67 C145.846108,5.4 145.484431,5.04 145.213174,4.59 C144.941916,4.14 144.851497,3.6 144.851497,3.15 C144.851497,2.61 144.941916,2.16 145.213174,1.71 C145.484431,1.26 145.846108,0.9 146.298204,0.63 C146.750299,0.36 147.202395,0.27 147.74491,0.27 Z M147.74491,0.72 C147.292814,0.72 146.931138,0.81 146.569461,1.08 C146.207784,1.26 145.846108,1.62 145.665269,1.98 C145.484431,2.34 145.303593,2.79 145.303593,3.24 C145.303593,3.69 145.394012,4.05 145.665269,4.5 C145.846108,4.86 146.207784,5.22 146.569461,5.4 C146.931138,5.58 147.383234,5.76 147.835329,5.76 C148.287425,5.76 148.649102,5.67 149.101198,5.4 C149.462874,5.22 149.824551,4.86 150.005389,4.5 C150.186228,4.14 150.367066,3.69 150.367066,3.24 C150.367066,2.79 150.276647,2.43 150.005389,1.98 C149.824551,1.62 149.462874,1.26 149.101198,1.08 C148.558683,0.81 148.106587,0.72 147.74491,0.72 Z M146.388623,4.86 L146.388623,1.71 L147.473653,1.71 C147.835329,1.71 148.106587,1.71 148.287425,1.8 C148.468263,1.89 148.558683,1.98 148.649102,2.07 C148.739521,2.25 148.82994,2.34 148.82994,2.52 C148.82994,2.79 148.739521,2.97 148.558683,3.15 C148.377844,3.33 148.197006,3.42 147.925749,3.42 C148.016168,3.51 148.106587,3.51 148.197006,3.6 C148.287425,3.69 148.468263,3.96 148.649102,4.23 L149.010778,4.86 L148.377844,4.86 L148.106587,4.32 C147.925749,3.96 147.74491,3.69 147.564072,3.6 C147.473653,3.51 147.292814,3.51 147.111976,3.51 L146.840719,3.51 L146.840719,4.86 L146.388623,4.86 Z M146.931138,3.06 L147.564072,3.06 C147.835329,3.06 148.106587,3.06 148.197006,2.97 C148.287425,2.88 148.377844,2.79 148.377844,2.61 C148.377844,2.52 148.377844,2.43 148.287425,2.34 C148.197006,2.25 148.197006,2.25 148.106587,2.16 C148.016168,2.16 147.835329,2.07 147.564072,2.07 L147.021557,2.07 L147.021557,3.06 L146.931138,3.06 Z" id="Shape" fill="#000000"></path>
            </g>
        </g>
    </g>
</svg>